<svg width="1600" height="420" viewBox="0 0 1600 420" fill="none" xmlns="http://www.w3.org/2000/svg" role="img" aria-label="banner light">
  <rect width="1600" height="420" rx="32" fill="#F8FAFC"/>
  <circle cx="1240" cy="110" r="190" fill="#93C5FD" fill-opacity="0.25"/>
  <circle cx="1380" cy="300" r="150" fill="#60A5FA" fill-opacity="0.15"/>
  <path d="M0 310C180 250 290 360 470 300C650 240 780 120 960 180C1130 236 1250 150 1600 90V420H0V310Z" fill="#E2E8F0" fill-opacity="0.9"/>
  <g opacity="0.35" stroke="#2563EB" stroke-width="2">
    <path d="M86 82H410"/>
    <path d="M86 122H328"/>
    <path d="M86 162H372"/>
    <path d="M86 202H260"/>
  </g>
  <text x="88" y="100" fill="#0F172A" font-family="Inter, Segoe UI, Arial, sans-serif" font-size="54" font-weight="700">Musa</text>
  <text x="88" y="158" fill="#2563EB" font-family="Inter, Segoe UI, Arial, sans-serif" font-size="28" font-weight="600">Backend Engineer</text>
  <text x="88" y="214" fill="#334155" font-family="Inter, Segoe UI, Arial, sans-serif" font-size="22" font-weight="400">Building backend systems, contributing to communities,</text>
  <text x="88" y="246" fill="#334155" font-family="Inter, Segoe UI, Arial, sans-serif" font-size="22" font-weight="400">and creating technology that matters.</text>
  <text x="88" y="318" fill="#0F172A" font-family="Inter, Segoe UI, Arial, sans-serif" font-size="20" font-weight="500">Go</text>
  <text x="144" y="318" fill="#0F172A" font-family="Inter, Segoe UI, Arial, sans-serif" font-size="20" font-weight="500">PostgreSQL</text>
  <text x="274" y="318" fill="#0F172A" font-family="Inter, Segoe UI, Arial, sans-serif" font-size="20" font-weight="500">Docker</text>
  <text x="372" y="318" fill="#0F172A" font-family="Inter, Segoe UI, Arial, sans-serif" font-size="20" font-weight="500">Linux</text>
  <g transform="translate(1130 76)">
    <rect x="0" y="0" width="350" height="230" rx="22" fill="#FFFFFF" stroke="#CBD5E1"/>
    <rect x="0" y="0" width="350" height="38" rx="22" fill="#E2E8F0"/>
    <circle cx="22" cy="19" r="5" fill="#EF4444"/>
    <circle cx="42" cy="19" r="5" fill="#F59E0B"/>
    <circle cx="62" cy="19" r="5" fill="#22C55E"/>
    <text x="22" y="78" fill="#2563EB" font-family="ui-monospace, SFMono-Regular, Consolas, monospace" font-size="18">$ whoami</text>
    <text x="22" y="108" fill="#0F172A" font-family="ui-monospace, SFMono-Regular, Consolas, monospace" font-size="18">musa</text>
    <text x="22" y="148" fill="#2563EB" font-family="ui-monospace, SFMono-Regular, Consolas, monospace" font-size="18">$ role</text>
    <text x="22" y="178" fill="#0F172A" font-family="ui-monospace, SFMono-Regular, Consolas, monospace" font-size="18">Backend Engineer</text>
    <text x="22" y="212" fill="#334155" font-family="ui-monospace, SFMono-Regular, Consolas, monospace" font-size="14">Producing value unconditionally</text>
  </g>
</svg>
