<svg width="256" height="256" viewBox="0 0 256 256" fill="none" xmlns="http://www.w3.org/2000/svg" role="img" aria-label="snowflake">
  <defs>
    <linearGradient id="g" x1="32" y1="32" x2="224" y2="224" gradientUnits="userSpaceOnUse">
      <stop stop-color="#93C5FD"/>
      <stop offset="0.5" stop-color="#60A5FA"/>
      <stop offset="1" stop-color="#3B82F6"/>
    </linearGradient>
  </defs>
  <rect width="256" height="256" rx="48" fill="none"/>
  <circle cx="128" cy="128" r="18" fill="url(#g)"/>
  <circle cx="128" cy="128" r="7" fill="#0D1117"/>
  <g stroke="url(#g)" stroke-width="8" stroke-linecap="round" stroke-linejoin="round">
    <path d="M128 32V224"/>
    <path d="M32 128H224"/>
    <path d="M58 58L198 198"/>
    <path d="M198 58L58 198"/>
  </g>
  <g stroke="url(#g)" stroke-width="6" stroke-linecap="round" stroke-linejoin="round">
    <path d="M128 32l-18 18"/>
    <path d="M128 32l18 18"/>
    <path d="M128 224l-18-18"/>
    <path d="M128 224l18-18"/>
    <path d="M32 128l18-18"/>
    <path d="M32 128l18 18"/>
    <path d="M224 128l-18-18"/>
    <path d="M224 128l-18 18"/>
    <path d="M58 58l26 0"/>
    <path d="M58 58l0 26"/>
    <path d="M198 198l-26 0"/>
    <path d="M198 198l0 -26"/>
    <path d="M198 58l-26 0"/>
    <path d="M198 58l0 26"/>
    <path d="M58 198l26 0"/>
    <path d="M58 198l0 -26"/>
  </g>
</svg>
